<?xml version="1.0" standalone="no"?>
<!DOCTYPE svg PUBLIC "-//W3C//DTD SVG 20010904//EN"
 "http://www.w3.org/TR/2001/REC-SVG-20010904/DTD/svg10.dtd">
<svg version="1.0" xmlns="http://www.w3.org/2000/svg"
 width="200.000000pt" height="200.000000pt" viewBox="0 0 200.000000 200.000000"
 preserveAspectRatio="xMidYMid meet">

<g transform="translate(0.000000,200.000000) scale(0.100000,-0.100000)"
fill="#000000" stroke="none">
<path d="M201 1163 c-7 -14 -86 -210 -158 -390 -4 -9 9 -13 45 -13 49 0 50 1
66 40 l16 41 82 -3 81 -3 12 -35 c11 -33 14 -35 63 -38 29 -2 52 -1 52 1 0 2
-37 96 -83 208 l-83 204 -41 3 c-32 2 -44 -1 -52 -15z m69 -169 c29 -66 27
-74 -20 -74 -25 0 -40 5 -40 13 0 14 32 107 37 107 2 0 13 -21 23 -46z"/>
<path d="M480 971 l0 -211 50 0 50 0 -2 208 -3 207 -47 3 -48 3 0 -210z"/>
<path d="M1205 1167 c-95 -44 -139 -151 -100 -244 32 -77 92 -113 185 -113 72
0 114 16 154 58 l29 31 -46 22 c-46 22 -47 22 -67 4 -44 -40 -140 -14 -140 37
0 17 10 18 130 18 l131 0 -7 38 c-11 62 -30 98 -68 127 -30 22 -49 28 -104 32
-44 2 -77 -1 -97 -10z m130 -83 c27 -28 12 -39 -49 -37 -32 0 -60 4 -63 7 -4
3 2 15 12 26 22 24 77 27 100 4z"/>
<path d="M1693 1160 c-27 -16 -33 -17 -33 -5 0 12 -14 15 -65 15 l-65 0 0
-175 0 -175 65 0 65 0 0 114 c0 112 1 115 26 135 15 12 32 21 39 21 7 0 24 -9
39 -21 25 -20 26 -23 26 -135 l0 -114 63 0 62 0 -2 137 c-2 115 -6 142 -21
163 -42 58 -139 77 -199 40z"/>
<path d="M720 1125 l0 -44 70 -3 70 -3 -85 -127 -85 -128 185 0 186 0 -3 43
-3 42 -77 3 c-43 2 -78 5 -78 8 0 3 38 61 85 130 l84 124 -174 0 -175 0 0 -45z"/>
<path d="M710 750 c0 -20 5 -20 142 -18 127 3 143 5 146 21 3 16 -9 17 -142
17 -140 0 -146 -1 -146 -20z"/>
</g>
</svg>
